<svg width="48px" height="48px" viewBox="0 0 32 32" version="1.1" xmlns="http://www.w3.org/2000/svg" xmlns:xlink="http://www.w3.org/1999/xlink"><desc>Created with Sketch.</desc><defs></defs><g id="Page-2" stroke="none" stroke-width="1" fill="none" fill-rule="evenodd"><g id="首页" transform="translate(-412.000000, -2849.000000)" fill-rule="nonzero" fill="#bfc7d5"><g id="Group-89" transform="translate(0.000000, 2044.000000)"><g id="Group-76" transform="translate(0.000000, 745.000000)"><g id="资源-2" transform="translate(412.000000, 60.000000)"><g id="图层_2"><g><g id="图层_3"><path d="M31.6150488,14.3648129 L21.6550793,14.3648129 C20.9019994,11.4405244 18.0976254,9.53386056 15.1093148,9.91441774 C12.1210042,10.2949749 9.88110424,12.84402 9.88110424,15.8642122 C9.88110424,18.8844044 12.1210042,21.4334494 15.1093148,21.8140066 C18.0976254,22.1945638 20.9019994,20.2879 21.6550793,17.3636115 L28.5642473,17.3636115 C27.9183491,22.9575437 23.7110305,27.4760129 18.1891623,28.5059818 C12.6672941,29.5359508 7.12072063,26.8368307 4.51152664,21.850056 C1.90233264,16.8632813 2.83999557,10.7537048 6.82376715,6.78407656 C10.8075387,2.81444831 16.9068561,1.91202745 21.864448,4.55874162 C21.0628259,6.79929215 21.9984638,9.29218007 24.0744616,10.4470414 C26.1504595,11.6019028 28.7552767,11.0785423 30.2271429,9.21084326 C31.6990091,7.34314425 31.6043467,4.68128735 30.0035466,2.92343204 C28.4027465,1.16557674 25.7673672,0.829546263 23.7786764,2.12971478 C17.5651353,-1.46705024 9.71675908,-0.431103891 4.64340839,4.6554743 C-0.429942301,9.74205249 -1.46323672,17.6109335 2.12411459,23.8407355 C5.71146589,30.0705374 13.0249634,33.1078705 19.9552851,31.2461122 C26.8856069,29.3843539 31.7046897,23.0877302 31.7047782,15.8942002 C31.7047782,15.2944405 31.6748684,14.7846447 31.6150488,14.3648129 Z M15.8525745,18.8630107 C14.2007009,18.8630107 12.8615927,17.5204029 12.8615927,15.8642122 C12.8615927,14.2080215 14.2007009,12.8654136 15.8525745,12.8654136 C17.5044482,12.8654136 18.8435564,14.2080215 18.8435564,15.8642122 C18.8435564,17.5204029 17.5044482,18.8630107 15.8525745,18.8630107 Z M26.4107404,4.40880169 C27.1365839,4.40880169 27.7909562,4.84718198 28.0687245,5.51952651 C28.3464928,6.19187104 28.1929554,6.96577307 27.6797065,7.4803633 C27.1664576,7.99495353 26.3945729,8.14889221 25.7239809,7.87039799 C25.0533889,7.59190377 24.6161513,6.9358213 24.6161513,6.20808082 C24.6161513,5.2143664 25.4196162,4.40880169 26.4107404,4.40880169 Z" id="Shape"></path>
</g></g></g></g></g></g></g></g></svg>