<?xml version="1.0" encoding="UTF-8"?>
<svg width="254px" height="255px" viewBox="0 0 254 255" version="1.1" xmlns="http://www.w3.org/2000/svg" xmlns:xlink="http://www.w3.org/1999/xlink">
    <!-- Generator: Sketch 51.3 (57544) - http://www.bohemiancoding.com/sketch -->
    <title>geetest</title>
    <desc>Created with Sketch.</desc>
    <defs></defs>
    <g id="Page-1" stroke="none" stroke-width="1" fill="none" fill-rule="evenodd">
        <g id="geetest" fill="#4A90E2" fill-rule="nonzero">
            <path d="M252.92039,114.918503 L173.240634,114.918503 C167.215995,91.5241952 144.781003,76.2708845 120.874518,79.3153419 C96.9680336,82.3597992 79.0488339,102.75216 79.0488339,126.913698 C79.0488339,151.075235 96.9680336,171.467595 120.874518,174.512053 C144.781003,177.55651 167.215995,162.3032 173.240634,138.908892 L228.513978,138.908892 C223.346793,183.66035 189.688244,219.808103 145.513298,228.047854 C101.338353,236.287606 56.965765,214.694646 36.0922131,174.800448 C15.2186611,134.90625 22.7199646,86.0296384 54.5901372,54.2726125 C86.4603096,22.5155865 135.254849,15.2962196 174.915584,36.469933 C168.502607,54.3943372 175.98771,74.3374406 192.595693,83.5763312 C209.203676,92.8152224 230.042214,88.6283384 241.817143,73.6867461 C253.592073,58.745154 252.834774,37.4502988 240.028373,23.3874563 C227.221972,9.32461392 206.138938,6.6363701 190.229411,17.0377182 C140.521082,-11.7364019 77.7340726,-3.44883113 37.1472671,37.2437944 C-3.43953841,77.9364199 -11.7058938,140.887468 16.9929167,190.725884 C45.6917271,240.564299 104.199707,264.862964 159.642281,249.968898 C215.084855,235.074831 253.637518,184.701842 253.638226,127.153602 C253.638226,122.355524 253.398947,118.277158 252.92039,114.918503 Z M126.820596,150.904086 C113.605607,150.904086 102.892742,140.163223 102.892742,126.913698 C102.892742,113.664172 113.605607,102.923309 126.820596,102.923309 C140.035586,102.923309 150.748451,113.664172 150.748451,126.913698 C150.748451,140.163223 140.035586,150.904086 126.820596,150.904086 Z M211.285923,35.2704135 C217.092671,35.2704135 222.32765,38.7774558 224.549796,44.1562121 C226.771942,49.5349683 225.543643,55.7261846 221.437652,59.8429064 C217.331661,63.9596282 211.156583,65.1911377 205.791847,62.9631839 C200.427111,60.7352302 196.92921,55.4865704 196.92921,49.6646466 C196.92921,41.7149312 203.35693,35.2704135 211.285923,35.2704135 Z" id="Shape"></path>
        </g>
    </g>
</svg>